<svg width="753" height="48" viewBox="0 0 753 48" fill="none" xmlns="http://www.w3.org/2000/svg">
<rect width="48" height="48" rx="8" fill="#E8F5E9"/>
<g clip-path="url(#clip0_22_791)">
<path fill-rule="evenodd" clip-rule="evenodd" d="M10.3533 0.194519C15.8761 0.194519 20.3533 4.67167 20.3533 10.1945V0.194519H30.3533C35.8761 0.194519 40.3533 4.67167 40.3533 10.1945C40.3533 15.7173 35.8761 20.1945 30.3533 20.1945C35.8761 20.1945 40.3533 24.6717 40.3533 30.1945C40.3533 32.9368 39.2494 35.4213 37.4618 37.2279L37.4244 37.2656L37.3912 37.2986C35.5842 39.0888 33.0979 40.1945 30.3533 40.1945C27.6274 40.1945 25.1562 39.1038 23.3523 37.335C23.3289 37.312 23.3055 37.2888 23.2822 37.2656C23.2603 37.2437 23.2385 37.2217 23.2168 37.1996C21.4457 35.3954 20.3533 32.9225 20.3533 30.1945C20.3533 35.7173 15.8761 40.1945 10.3533 40.1945C4.83048 40.1945 0.353333 35.7173 0.353333 30.1945V20.1945H10.3533C4.83048 20.1945 0.353333 15.7173 0.353333 10.1945C0.353333 4.67167 4.83048 0.194519 10.3533 0.194519ZM18.3533 10.1945C18.3533 14.6128 14.7716 18.1945 10.3533 18.1945V2.19452C14.7716 2.19452 18.3533 5.77624 18.3533 10.1945ZM38.3533 30.1945C38.3533 25.7762 34.7716 22.1945 30.3533 22.1945C25.935 22.1945 22.3533 25.7762 22.3533 30.1945H38.3533ZM2.35333 22.1945V30.1945C2.35333 34.6128 5.93505 38.1945 10.3533 38.1945C14.7716 38.1945 18.3533 34.6128 18.3533 30.1945V22.1945H2.35333ZM22.3533 18.1945V2.19452H30.3533C34.7716 2.19452 38.3533 5.77624 38.3533 10.1945C38.3533 14.6128 34.7716 18.1945 30.3533 18.1945H22.3533Z" fill="#5417D7"/>
</g>
<rect x="89" width="48" height="48" rx="8" fill="#F5F7FA"/>
<g clip-path="url(#clip1_22_791)">
<path fill-rule="evenodd" clip-rule="evenodd" d="M99.0981 13.9614L89.1123 23.8468C91.1096 25.8241 93.3913 27.4905 95.8789 28.7942C96.5665 30.5998 97.6443 32.2931 99.1123 33.7463C104.635 39.2136 113.59 39.2136 119.112 33.7463C120.58 32.2931 121.658 30.5998 122.346 28.7941C124.833 27.4905 127.115 25.8241 129.112 23.8468L119.135 13.9695C119.127 13.9621 119.12 13.9547 119.112 13.9473C113.59 8.47997 104.635 8.47997 99.1123 13.9473C99.1076 13.952 99.1028 13.9567 99.0981 13.9614ZM118.157 30.5777C115.247 31.5499 112.192 32.0478 109.112 32.0478C106.033 32.0478 102.978 31.5499 100.068 30.5777C100.383 30.9918 100.731 31.3892 101.112 31.7664C105.531 36.1403 112.694 36.1403 117.112 31.7664C117.493 31.3892 117.842 30.9918 118.157 30.5777ZM101.317 15.7292C102.068 16.2199 102.866 16.6398 103.7 16.9822C105.416 17.6857 107.255 18.0478 109.112 18.0478C110.97 18.0478 112.809 17.6857 114.524 16.9822C115.359 16.6398 116.157 16.2199 116.907 15.7292C112.544 11.6193 105.681 11.6193 101.317 15.7292Z" fill="#3B4158"/>
</g>
<rect x="178" width="48" height="48" rx="8" fill="#F5F7FA"/>
<g clip-path="url(#clip2_22_791)">
<path d="M232.996 19.5165C233.001 19.4748 233.001 19.4326 232.996 19.3909C233.001 19.3569 233.001 19.3223 232.996 19.2882L232.588 16.3556C232.53 16.0047 232.372 15.6768 232.134 15.4085L232.064 15.3286L231.937 15.2031L224.883 9.24648L225.081 9.44048C224.919 9.2506 224.716 9.09872 224.486 8.99602C224.256 8.89333 224.006 8.84244 223.754 8.8471H221.612C221.264 8.84034 220.924 8.94889 220.646 9.1552C220.355 8.95013 220.004 8.84213 219.645 8.8471H217.503C217.222 8.84263 216.945 8.91098 216.7 9.04523C216.455 9.17948 216.25 9.37488 216.107 9.61164C215.885 9.94979 215.802 10.3572 215.874 10.7527L216.142 12.6013C215.964 12.5028 215.763 12.4516 215.56 12.453H205.189C204.817 12.4553 204.453 12.5622 204.141 12.7611C203.839 12.9462 203.597 13.2113 203.443 13.5256L202.64 12.8524C202.324 12.5656 201.906 12.4102 201.476 12.4188H185.204C184.83 12.4254 184.465 12.5277 184.144 12.7155C183.706 12.9672 183.384 13.3764 183.248 13.8566L178.08 30.802C177.984 31.0812 177.974 31.3824 178.053 31.6669C178.132 31.9514 178.295 32.2065 178.522 32.3996C178.582 32.4488 178.644 32.4945 178.709 32.5365C178.709 32.5365 178.604 32.468 178.546 32.411L185.599 38.379C185.898 38.6483 186.288 38.7988 186.693 38.8011H203.094C203.468 38.7916 203.833 38.6853 204.153 38.493C204.333 38.3963 204.495 38.2688 204.63 38.1165L204.688 38.0366L204.781 37.9225L204.851 37.797L205.619 38.4474C205.913 38.706 206.295 38.8483 206.69 38.8468H223.125C223.499 38.8346 223.864 38.7285 224.184 38.5387C224.361 38.436 224.522 38.3092 224.662 38.1621L224.72 38.0823L224.813 37.9682C224.863 37.896 224.905 37.8196 224.941 37.7399C224.979 37.6707 225.01 37.5981 225.034 37.5231L229.748 22.0497V21.9128C229.754 21.8597 229.754 21.8061 229.748 21.753V21.6504C229.754 21.6163 229.754 21.5817 229.748 21.5476C229.753 21.4755 229.753 21.403 229.748 21.3308H231.261C231.393 21.3426 231.525 21.3426 231.657 21.3308H231.762C231.847 21.3059 231.929 21.2714 232.006 21.2281H232.123L232.332 21.0684L232.425 20.9999L232.588 20.7945V20.7261L232.705 20.532C232.698 20.4943 232.698 20.4557 232.705 20.418C232.698 20.3994 232.698 20.3794 232.705 20.3609C232.729 20.294 232.749 20.2253 232.763 20.1555C232.757 20.133 232.757 20.1095 232.763 20.087C232.757 20.053 232.757 20.0183 232.763 19.9843C232.763 19.9843 232.996 19.5393 232.996 19.5165Z" fill="black"/>
<path d="M201.953 13.7196C202.015 13.7744 202.058 13.8465 202.077 13.926C202.095 14.0056 202.089 14.0889 202.058 14.1647L196.901 31.0987C196.836 31.2836 196.704 31.4382 196.529 31.5324C196.387 31.6256 196.222 31.6806 196.052 31.6921H179.663C179.523 31.6855 179.391 31.6287 179.291 31.5324C179.231 31.4784 179.19 31.4084 179.171 31.3312C179.152 31.254 179.157 31.173 179.186 31.0987L184.354 14.1647C184.413 13.9775 184.542 13.8188 184.715 13.7196C184.859 13.6331 185.023 13.5822 185.192 13.5713H201.58C201.719 13.5726 201.852 13.6257 201.953 13.7196ZM193.398 27.6868L196.482 17.5766H187.846L184.773 27.6868H193.398ZM217.597 13.8908C217.652 13.9545 217.722 14.005 217.801 14.0386C217.88 14.0722 217.965 14.088 218.051 14.0848H220.181C220.262 14.0856 220.342 14.0661 220.413 14.0281C220.484 13.9902 220.544 13.9351 220.588 13.868C220.626 13.8156 220.652 13.7562 220.666 13.6935C220.68 13.6308 220.681 13.566 220.669 13.5028L220.25 10.4903C220.21 10.3509 220.139 10.2221 220.041 10.1137C219.985 10.05 219.915 9.99952 219.836 9.96594C219.758 9.93235 219.673 9.91657 219.587 9.91976H217.457C217.376 9.91899 217.296 9.93849 217.225 9.97642C217.153 10.0144 217.093 10.0695 217.05 10.1366C216.968 10.2963 216.933 10.399 216.968 10.4903L217.399 13.5028C217.421 13.6495 217.49 13.7854 217.597 13.8908ZM224.359 10.4675C224.319 10.3281 224.248 10.1993 224.15 10.0909C224.096 10.0275 224.028 9.97695 223.952 9.9433C223.875 9.90966 223.791 9.89379 223.707 9.89694H221.566C221.486 9.89471 221.407 9.91368 221.337 9.95185C221.268 9.99002 221.21 10.046 221.17 10.1137C221.092 10.215 221.059 10.3421 221.077 10.4675L221.507 13.48C221.534 13.6251 221.603 13.7597 221.705 13.868C221.762 13.9304 221.832 13.9801 221.911 14.0136C221.989 14.0471 222.074 14.0636 222.159 14.062H224.301C224.381 14.063 224.459 14.0435 224.528 14.0055C224.598 13.9674 224.656 13.9121 224.697 13.8452C224.737 13.7941 224.765 13.7348 224.78 13.6716C224.794 13.6084 224.793 13.543 224.778 13.48L224.359 10.4675ZM215.723 15.0319L215.513 13.5485H205.189C205.027 13.5572 204.87 13.6085 204.735 13.6968C204.649 13.7427 204.574 13.8062 204.516 13.883C204.458 13.9598 204.417 14.0481 204.397 14.1419L203.536 16.9718C203.502 17.0425 203.49 17.1219 203.502 17.1993C203.515 17.2767 203.551 17.3485 203.606 17.4054C203.704 17.4959 203.832 17.5486 203.967 17.5538H216.514L213.43 27.664H200.917C200.756 27.6676 200.599 27.715 200.463 27.8009C200.299 27.9034 200.178 28.0619 200.126 28.2459L199.253 31.0759C199.224 31.1485 199.217 31.2274 199.231 31.3039C199.245 31.3805 199.281 31.4516 199.334 31.5095C199.429 31.606 199.558 31.6631 199.695 31.6692H216.13C216.3 31.6549 216.464 31.6001 216.607 31.5095C216.779 31.4148 216.908 31.26 216.968 31.0759L221.694 15.6025H216.374C216.29 15.6041 216.206 15.5887 216.128 15.5573C216.05 15.5259 215.979 15.4791 215.92 15.4199C215.824 15.3164 215.756 15.1908 215.723 15.0547V15.0319Z" fill="white"/>
</g>
<rect x="267" width="48" height="48" rx="8" fill="#F5F7FA"/>
<g clip-path="url(#clip3_22_791)">
<path d="M310.997 13.4115C310.997 13.4453 310.997 13.4876 310.988 13.5129C310.944 13.8426 310.944 14.1723 310.97 14.5105C310.988 14.595 311.005 14.6795 311.076 14.7472C311.19 14.874 311.366 14.8486 311.437 14.6964C311.472 14.6204 311.472 14.5443 311.454 14.4682C311.366 14.147 311.349 13.8088 311.34 13.4791C311.34 13.4622 311.34 13.4369 311.34 13.4115C311.437 13.4031 311.525 13.3946 311.604 13.3946C311.666 13.3861 311.719 13.3777 311.763 13.3523C311.895 13.2847 311.895 13.141 311.754 13.0734C311.701 13.048 311.631 13.0396 311.569 13.0396C311.349 13.048 311.129 13.048 310.908 13.048C310.829 13.048 310.75 13.0565 310.671 13.0649C310.627 13.0734 310.574 13.0734 310.539 13.0987C310.477 13.1241 310.442 13.1664 310.442 13.2255C310.45 13.2847 310.477 13.3185 310.539 13.3439C310.574 13.3692 310.618 13.3777 310.662 13.3777C310.767 13.3861 310.882 13.4031 310.997 13.4115ZM313.419 13.8004C313.419 13.8088 313.427 13.8173 313.427 13.8173C313.463 14.0455 313.498 14.2653 313.524 14.4851C313.533 14.5612 313.542 14.6288 313.595 14.688C313.709 14.8317 313.885 14.8148 313.965 14.6626C314 14.5865 314.009 14.5105 313.991 14.4259C313.938 14.1723 313.912 13.9187 313.859 13.6736C313.824 13.5214 313.78 13.3777 313.736 13.2424C313.709 13.1579 313.648 13.0987 313.542 13.0903C313.436 13.0734 313.357 13.1241 313.313 13.2002C313.26 13.2678 313.216 13.3354 313.181 13.4115C313.119 13.5468 313.066 13.682 312.996 13.8088C312.987 13.8426 312.978 13.868 312.961 13.8934C312.952 13.8764 312.943 13.868 312.943 13.868C312.829 13.6567 312.723 13.4453 312.608 13.2424C312.591 13.2255 312.582 13.2086 312.573 13.1917C312.52 13.1156 312.459 13.0734 312.362 13.0734C312.274 13.0818 312.203 13.1325 312.159 13.2086C312.142 13.2424 312.142 13.2678 312.133 13.3016C312.097 13.5721 312.053 13.8426 312.018 14.1131C312.001 14.2653 311.992 14.4175 311.992 14.5696C311.983 14.6034 311.992 14.6457 312.009 14.6795C312.027 14.7471 312.08 14.7894 312.15 14.7979C312.238 14.8063 312.3 14.781 312.326 14.7133C312.353 14.6626 312.362 14.6204 312.371 14.5781C312.406 14.4259 312.432 14.2822 312.459 14.1385C312.476 14.054 312.485 13.9863 312.511 13.8934C312.529 13.9272 312.547 13.9525 312.564 13.9779C312.644 14.0793 312.723 14.1808 312.82 14.2653C312.917 14.3329 312.996 14.3245 313.075 14.2484C313.093 14.2315 313.102 14.223 313.119 14.2061C313.198 14.0878 313.295 13.9694 313.375 13.8511C313.392 13.8342 313.401 13.8173 313.419 13.8004Z" fill="#3A3B7B"/>
<path d="M293.124 13.5776C293.063 13.7383 293.052 13.854 293.08 13.9502C293.111 14.081 293.192 14.1238 293.302 14.0906C294.337 13.845 296.605 14.542 297.445 14.7362C297.643 14.777 297.804 14.5316 297.669 14.3115C297.472 14.0985 295.204 13.1862 294.339 13.1364C294 13.118 293.394 13.0346 293.124 13.5776Z" fill="#3A3B7B"/>
<path d="M301.99 10.6244C302.101 10.6855 302.162 10.7438 302.193 10.8089C302.238 10.8942 302.214 10.9533 302.138 10.9835C301.454 11.3038 300.544 12.6829 300.177 13.1585C300.088 13.2679 299.882 13.2044 299.851 13.0244C299.858 12.821 300.664 11.3244 301.115 10.9167C301.291 10.7576 301.584 10.4453 301.99 10.6244Z" fill="#3A3B7B"/>
<path d="M296.544 9.94553C296.677 9.84971 296.815 9.81614 296.885 9.87841C297.917 10.7253 298.464 12.0664 298.803 13.2942C298.815 13.3228 298.816 13.3639 298.806 13.4067C298.802 13.4433 298.774 13.482 298.73 13.5119C298.682 13.5449 298.642 13.555 298.623 13.5265C298.17 12.9362 295.588 10.6393 296.544 9.94553Z" fill="#3A3B7B"/>
<path d="M274.695 24.6286C274.943 24.4519 275.211 24.3048 275.496 24.1906C275.793 24.109 276.111 24.1225 276.4 24.2293C276.689 24.336 276.933 24.5301 277.097 24.7823C277.244 25.0338 277.301 25.3242 277.26 25.6097C277.22 25.8952 277.084 26.1603 276.873 26.3652C276.709 26.5313 276.523 26.676 276.321 26.7956C275.416 27.3565 274.503 27.8867 273.59 28.4476C273.404 28.588 273.206 28.714 272.998 28.8242C272.682 28.9753 272.321 29.0158 271.978 28.9386C271.634 28.8615 271.33 28.6715 271.116 28.4016C270.957 28.2104 270.823 28.0014 270.716 27.7791C269.851 26.0348 268.955 24.2982 268.122 22.5231C267.738 21.7548 267.426 20.8711 267.121 20.0181C266.99 19.7703 266.964 19.483 267.05 19.2173C267.135 18.9515 267.326 18.7284 267.58 18.5952C267.835 18.4621 268.133 18.4295 268.412 18.5044C268.692 18.5793 268.929 18.7557 269.075 18.9961C269.523 19.5673 269.919 20.174 270.26 20.8096C271.124 22.3464 271.949 23.8832 272.782 25.374C272.83 25.4564 272.884 25.5358 272.942 25.6122C273.569 25.3593 274.158 25.0286 274.695 24.6286Z" fill="#3A3B7B"/>
<path d="M283.635 24.0925C281.658 26.3132 278.343 25.7523 276.678 22.8938C275.493 20.8652 275.285 17.5149 277.863 15.4017C278.413 14.9593 279.072 14.658 279.776 14.5257C280.64 14.4069 281.521 14.5532 282.294 14.9437C283.066 15.3343 283.689 15.9491 284.076 16.7004C285.485 19.1593 285.285 22.2944 283.635 24.0925ZM282.835 18.9134C282.625 18.3091 282.203 17.7933 281.642 17.4534C281.324 17.2361 280.938 17.1304 280.549 17.1542C280.16 17.178 279.791 17.3298 279.504 17.584C278.359 18.5599 278.119 20.8729 278.952 22.2483C279.058 22.4726 279.214 22.6719 279.409 22.8324C279.603 22.9928 279.832 23.1104 280.079 23.177C280.326 23.2436 280.586 23.2576 280.839 23.218C281.092 23.1783 281.333 23.086 281.546 22.9476C282.166 22.4857 282.622 21.8498 282.848 21.1283C283.075 20.4066 283.062 19.6352 282.811 18.9211L282.835 18.9134Z" fill="#3A3B7B"/>
<path d="M291.706 19.8816C291.503 19.9234 291.294 19.9259 291.09 19.8889C290.887 19.8519 290.693 19.7763 290.521 19.6665C290.37 19.5836 290.24 19.4696 290.14 19.3327C290.04 19.1958 289.974 19.0395 289.945 18.8748C289.916 18.7103 289.925 18.5415 289.972 18.3808C290.019 18.22 290.102 18.0713 290.216 17.9452C290.415 17.6918 290.697 17.5105 291.017 17.4304C291.852 17.1978 292.711 17.0561 293.579 17.0078C293.77 16.9865 293.963 17.002 294.147 17.0533C294.332 17.1047 294.503 17.1909 294.653 17.3069C294.802 17.4228 294.925 17.5662 295.016 17.7286C295.106 17.891 295.162 18.0692 295.18 18.2526C295.43 19.1536 295.458 20.0982 295.26 21.0112C294.54 23.9619 292.058 24.9762 289.272 24.031C288.49 23.7783 287.804 23.3075 287.302 22.6786C286.633 21.9214 286.159 21.0239 285.917 20.0584C285.721 19.1986 285.743 18.3064 285.98 17.4563C286.216 16.6061 286.662 15.8226 287.278 15.1712C287.863 14.4633 288.623 13.9061 289.488 13.5499C290.035 13.2606 290.674 13.1784 291.281 13.3194C291.419 13.3559 291.544 13.4272 291.643 13.5257C291.742 13.6243 291.812 13.7465 291.846 13.8798C291.88 14.013 291.875 14.1525 291.834 14.2836C291.792 14.4148 291.715 14.5329 291.61 14.6257C291.41 14.7994 291.192 14.9538 290.961 15.0867C290.249 15.5218 289.63 16.0823 289.136 16.7388C288.812 17.1636 288.588 17.6514 288.482 18.1678C288.375 18.6842 288.388 19.2167 288.519 19.728C288.701 20.425 289.104 21.0507 289.672 21.5183C291.433 23.0552 293.723 21.5721 293.323 19.4743C292.738 19.6127 292.226 19.7587 291.706 19.8816Z" fill="#3A3B7B"/>
<path d="M302.466 24.2154C299.864 25.7523 296.902 24.2154 296.253 20.9881C295.781 18.6829 296.678 15.4556 299.816 14.2261C300.484 13.9701 301.208 13.8803 301.922 13.9648C302.779 14.1155 303.565 14.5206 304.17 15.123C304.775 15.7255 305.167 16.4949 305.292 17.3228C305.821 20.066 304.62 22.9937 302.466 24.2154ZM303.371 19.044C303.37 18.4057 303.135 17.788 302.706 17.2997C302.477 16.9977 302.146 16.7814 301.769 16.6874C301.393 16.5936 300.994 16.628 300.641 16.7849C299.232 17.3689 298.239 19.4897 298.599 21.0496C298.627 21.2944 298.709 21.5305 298.842 21.7414C298.974 21.9522 299.153 22.1327 299.366 22.2703C299.579 22.4079 299.82 22.4992 300.074 22.5379C300.327 22.5766 300.586 22.5617 300.833 22.4942C301.578 22.2445 302.222 21.7778 302.677 21.1592C303.132 20.5407 303.375 19.8012 303.371 19.044Z" fill="#3A3B7B"/>
<path d="M307.924 24.861C307.884 25.1422 307.73 25.3969 307.495 25.5692C307.26 25.7413 306.964 25.8169 306.671 25.7792C306.378 25.7415 306.112 25.5936 305.933 25.3681C305.753 25.1426 305.675 24.8579 305.714 24.5766C305.753 24.2954 305.907 24.0407 306.142 23.8685C306.377 23.6962 306.674 23.6207 306.967 23.6584C307.26 23.6961 307.525 23.8439 307.705 24.0695C307.884 24.295 307.963 24.5797 307.924 24.861ZM307.227 14.495C307.379 14.2718 307.603 14.1019 307.864 14.0105C308.125 13.9191 308.41 13.9111 308.676 13.9879C308.947 14.0529 309.186 14.2051 309.354 14.4192C309.521 14.6332 309.607 14.896 309.597 15.1636C309.562 15.5927 309.495 16.019 309.397 16.4391C309.133 17.8607 308.876 19.2822 308.596 20.6885C308.468 21.2494 308.3 21.7873 308.116 22.3559C308.052 22.5337 307.945 22.6943 307.803 22.8246C307.716 22.9227 307.604 22.9979 307.478 23.0433C307.351 23.0888 307.216 23.103 307.082 23.0846C306.949 23.0662 306.823 23.0159 306.715 22.9382C306.607 22.8605 306.522 22.758 306.466 22.6402C306.371 22.4289 306.32 22.2019 306.314 21.9717C306.314 21.0189 306.314 20.0584 306.378 19.0978C306.487 17.727 306.701 16.3658 307.019 15.0252C307.056 14.8456 307.127 14.6739 307.227 14.5181V14.495Z" fill="#3A3B7B"/>
<path fill-rule="evenodd" clip-rule="evenodd" d="M271.313 31.0358C271.218 31.2383 271.192 31.4642 271.238 31.6815C271.269 31.9679 271.337 32.2497 271.439 32.5203C271.568 32.8517 271.711 33.1794 271.888 33.5833C271.929 33.6762 271.971 33.7732 272.016 33.8753C272.254 34.4225 272.554 35.1218 272.953 36.1338C273.066 36.4213 273.167 36.7112 273.268 37.003C273.309 37.1209 273.35 37.2392 273.392 37.3578C273.542 37.7794 273.801 38.1581 274.144 38.4582C274.289 38.6232 274.482 38.7434 274.699 38.8035C274.92 38.8648 275.155 38.8609 275.373 38.7924C275.592 38.7238 275.784 38.5937 275.924 38.4189C276.062 38.2476 276.143 38.0412 276.159 37.8256C276.249 37.4055 276.218 36.9699 276.071 36.5649C275.837 35.8924 275.571 35.2189 275.265 34.5602L275.263 34.5573C274.758 33.5268 274.245 32.5033 273.708 31.4795L273.704 31.4723C273.547 31.2056 273.342 30.9671 273.1 30.7677C272.942 30.5897 272.725 30.4696 272.486 30.4282C272.241 30.3859 271.988 30.4285 271.773 30.5484C271.57 30.6599 271.408 30.8306 271.313 31.0358Z" fill="#3A3B7B"/>
<path fill-rule="evenodd" clip-rule="evenodd" d="M279.022 28.4981C278.231 28.3014 277.404 28.2727 276.6 28.4142C275.977 28.473 275.365 28.6109 274.939 28.884C274.723 29.023 274.548 29.2015 274.451 29.4284C274.353 29.6565 274.341 29.9173 274.421 30.208C274.567 30.7404 274.757 31.2581 274.947 31.7741L274.977 31.8576L274.978 31.8595C275.548 33.3585 276.124 34.8525 276.705 36.3413C276.773 36.5759 276.869 36.8023 276.991 37.0158L276.993 37.0197C277.154 37.2849 277.361 37.5221 277.604 37.7214C277.726 37.8309 277.876 37.9067 278.039 37.9406C278.204 37.9747 278.376 37.9648 278.535 37.9119C278.694 37.8589 278.836 37.765 278.943 37.6403C279.049 37.5176 279.118 37.3699 279.144 37.2126C279.249 36.7854 279.215 36.3375 279.047 35.9292C278.995 35.7918 278.954 35.6513 278.91 35.5035C278.896 35.4542 278.881 35.404 278.866 35.3529C280.196 34.854 281.611 34.1831 282.108 32.6224C282.303 32.083 282.32 31.499 282.155 30.9504C281.99 30.4012 281.652 29.9144 281.187 29.557C280.555 29.0568 279.816 28.6953 279.022 28.4981ZM276.828 30.4125C276.855 30.4052 276.881 30.3985 276.907 30.3922C277.773 30.2616 278.659 30.4357 279.402 30.8823C279.729 31.1007 279.863 31.3435 279.886 31.5771C279.91 31.8176 279.819 32.0782 279.636 32.3287C279.29 32.8019 278.659 33.1807 278.089 33.2513C277.673 32.3326 277.251 31.3768 276.828 30.4125Z" fill="#3A3B7B"/>
<path d="M284.299 26.8166C285.242 26.3988 286.409 26.3266 287.323 26.6204C287.553 26.6847 287.753 26.8239 287.888 27.014C288.022 27.203 288.084 27.4307 288.063 27.6583C288.062 27.8061 288.024 27.9515 287.953 28.0827C287.88 28.2162 287.775 28.331 287.647 28.4175C287.519 28.5039 287.371 28.5594 287.215 28.5793C287.06 28.5992 286.901 28.5828 286.754 28.5316L286.743 28.5277L286.732 28.5224C286.657 28.4845 286.577 28.456 286.494 28.4374L286.488 28.4363C285.846 28.2724 285.24 28.5439 285.018 28.8775C284.912 29.0365 284.899 29.1971 284.987 29.3431C285.082 29.4995 285.313 29.675 285.78 29.8001C285.909 29.834 286.04 29.8667 286.174 29.8999C286.544 29.9918 286.928 30.0872 287.3 30.2195L287.301 30.22C289.015 30.8459 289.653 32.1421 289.435 33.3613C289.218 34.567 288.169 35.6642 286.592 35.9231C286.018 36.0452 285.42 36.0214 284.858 35.8541C284.295 35.6862 283.788 35.3799 283.386 34.9655L283.376 34.9547C283.249 34.7985 283.164 34.6151 283.126 34.4205C283.091 34.2448 283.11 34.0633 283.179 33.8973C283.247 33.7323 283.364 33.5894 283.514 33.4854C283.672 33.3674 283.863 33.2966 284.063 33.2818C284.263 33.2671 284.462 33.3087 284.637 33.4014C284.812 33.4825 284.975 33.5859 285.121 33.7089L285.123 33.7111C285.382 33.9378 285.694 33.9968 285.994 33.9421C286.298 33.8866 286.584 33.714 286.767 33.485C286.95 33.2574 287.023 32.987 286.936 32.7246C286.849 32.4602 286.585 32.164 286.007 31.9164C285.856 31.8548 285.699 31.8051 285.536 31.7567C285.492 31.7436 285.447 31.7307 285.402 31.7175C285.281 31.6824 285.157 31.6462 285.036 31.6063C284.952 31.5789 284.869 31.5529 284.786 31.5271C284.561 31.4568 284.342 31.3883 284.131 31.2963C283.672 31.1462 283.275 30.8579 282.999 30.4741C282.723 30.0888 282.584 29.628 282.603 29.1606C282.604 28.0215 283.352 27.2367 284.299 26.8166Z" fill="#3A3B7B"/>
<path d="M296.249 26.6953C296.066 26.6096 295.864 26.5689 295.661 26.5769C295.457 26.585 295.26 26.6414 295.085 26.7412C294.911 26.8403 294.766 26.9792 294.661 27.1453C294.566 27.2852 294.5 27.4417 294.467 27.606C294.434 27.7702 294.435 27.9389 294.469 28.1027C294.503 28.3132 294.541 28.5179 294.578 28.7198C294.64 29.0539 294.7 29.3805 294.739 29.7135L294.741 29.7219C294.831 30.2441 294.878 30.7722 294.883 31.3015L294.883 31.309C294.914 31.8805 294.711 32.441 294.318 32.8714L294.311 32.879C294.184 33.0363 294.013 33.1564 293.818 33.2258C293.623 33.2952 293.411 33.3112 293.207 33.2719C293.003 33.2326 292.815 33.1397 292.663 33.0034C292.511 32.8672 292.401 32.6925 292.347 32.5C292.23 32.0942 292.162 31.6768 292.145 31.2562L292.345 28.207C292.347 28.1672 292.351 28.1264 292.354 28.0851C292.362 27.9925 292.37 27.8982 292.373 27.8102C292.378 27.6808 292.374 27.5476 292.342 27.4216C292.31 27.2928 292.249 27.1703 292.14 27.066C292.033 26.9627 291.888 26.8865 291.705 26.8346C291.375 26.7429 291.096 26.7458 290.864 26.8405C290.631 26.9353 290.472 27.1111 290.359 27.3142C290.247 27.5157 290.175 27.7541 290.121 27.993C290.08 28.1702 290.048 28.3563 290.017 28.5334C290.006 28.5944 289.996 28.6543 289.985 28.7125L289.985 28.7142C289.82 29.6854 289.771 30.6716 289.839 31.6535C289.852 32.1841 289.967 32.7079 290.179 33.1981C290.418 33.8305 290.852 34.3785 291.422 34.7697C291.994 35.1616 292.676 35.3776 293.379 35.389C294.081 35.4004 294.771 35.2067 295.356 34.8336C295.94 34.461 296.393 33.927 296.654 33.3023C297.02 32.5064 297.192 31.6409 297.157 30.7717C297.135 30.1371 297.099 29.4977 297.063 28.8615C297.046 28.5494 297.028 28.238 297.012 27.9284C297.005 27.6181 296.898 27.3175 296.707 27.0669C296.589 26.9086 296.431 26.7808 296.249 26.6953Z" fill="#3A3B7B"/>
<path d="M302.717 31.4764C302.699 31.499 302.679 31.5224 302.659 31.5467C302.51 30.7236 302.372 29.9008 302.234 29.0768C302.185 28.7811 302.135 28.4842 302.085 28.1881L302.08 28.1551L302.061 28.1266C302.027 28.0728 302.023 28.0202 302.023 27.9079V27.8949L302.021 27.882C301.984 27.6501 301.875 27.4342 301.708 27.2627C301.541 27.0917 301.325 26.9727 301.087 26.921C300.85 26.8648 300.6 26.8772 300.37 26.9567C300.14 27.036 299.94 27.1784 299.794 27.3663C299.673 27.5104 299.574 27.6703 299.499 27.8412C299.331 28.2092 299.16 28.5782 298.989 28.9481L298.987 28.9545C298.56 29.8781 298.131 30.8079 297.714 31.745L297.713 31.748C297.457 32.3556 297.246 32.9958 297.035 33.6341C296.993 33.7615 296.951 33.8889 296.909 34.0159C296.833 34.2173 296.799 34.4312 296.811 34.6451C296.797 34.8366 296.845 35.0276 296.948 35.1923C297.053 35.3603 297.21 35.4926 297.397 35.5704C297.596 35.654 297.818 35.6717 298.028 35.6208C298.238 35.57 298.425 35.4537 298.558 35.2903C298.729 35.0889 298.876 34.8693 298.995 34.6367C299.348 33.9434 299.686 33.2418 300.022 32.5431C300.152 32.2729 300.278 32.0309 300.422 31.7673C300.431 31.7998 300.442 31.8315 300.452 31.8633C300.603 32.4996 300.857 33.1091 301.205 33.6695C301.271 33.7882 301.363 33.8919 301.474 33.9736C301.587 34.0563 301.717 34.1143 301.856 34.1437C301.994 34.1732 302.138 34.1733 302.277 34.1441C302.415 34.115 302.546 34.0569 302.658 33.9747L302.882 33.8142L304.616 32.4125L304.513 33.0396C304.372 33.9016 304.233 34.7565 304.084 35.6115C303.987 35.9905 303.987 36.3863 304.085 36.7652C304.127 36.9784 304.234 37.1747 304.393 37.329C304.554 37.4847 304.759 37.5904 304.983 37.6326C305.206 37.6747 305.438 37.6513 305.648 37.5655C305.855 37.4809 306.03 37.3395 306.153 37.1592C306.439 36.8188 306.617 36.4066 306.666 35.9718C306.739 35.3578 306.823 34.7355 306.906 34.1133C307.002 33.3961 307.097 32.6792 307.178 31.976L307.179 31.9738C307.256 31.204 307.294 30.4311 307.292 29.6578C307.309 29.4134 307.245 29.1699 307.11 28.9618C306.975 28.753 306.774 28.5907 306.537 28.4978C306.29 28.3901 306.013 28.3613 305.748 28.4158C305.485 28.4698 305.246 28.6031 305.068 28.7961C304.748 29.08 304.448 29.3838 304.169 29.7055L304.168 29.7076C303.864 30.071 303.562 30.4415 303.262 30.8096C303.08 31.0333 302.898 31.2566 302.717 31.4764Z" fill="#3A3B7B"/>
</g>
<rect x="356" width="48" height="48" rx="8" fill="#F5F7FA"/>
<g clip-path="url(#clip4_22_791)">
<path d="M394.438 11.6905C394.438 12.1565 394.82 12.5343 395.292 12.5343H396.146C396.618 12.5343 397 12.1565 397 11.6905C397 11.2246 396.618 10.8468 396.146 10.8468H395.292C394.82 10.8468 394.438 11.2246 394.438 11.6905Z" fill="#212326"/>
<path d="M369.667 37.8468H373.816L372.608 36.6535C372.288 36.3371 371.853 36.1593 371.4 36.1593H369.667C363.062 36.1593 357.708 30.8707 357.708 24.3468C357.708 17.8229 363.062 12.5343 369.667 12.5343H383.333C389.938 12.5343 395.292 17.8229 395.292 24.3468C395.292 30.8707 389.938 36.1593 383.333 36.1593H378.221C377.541 36.1593 376.889 35.8926 376.409 35.4179L374.994 34.02C374.193 33.2288 373.106 32.7843 371.974 32.7843H369.667C364.949 32.7843 361.125 29.0067 361.125 24.3468C361.125 19.6869 364.949 15.9093 369.667 15.9093H383.333C388.051 15.9093 391.875 19.6869 391.875 24.3468C391.875 29.0067 388.051 32.7843 383.333 32.7843H380.051C379.371 32.7843 378.719 32.5176 378.239 32.0429L376.823 30.645C376.022 29.8538 374.936 29.4093 373.803 29.4093H369.667C366.836 29.4093 364.542 27.1427 364.542 24.3468C364.542 21.5509 366.836 19.2843 369.667 19.2843H383.333C386.164 19.2843 388.458 21.5509 388.458 24.3468C388.458 27.1086 386.219 29.354 383.437 29.4083L383.436 29.4093H382.186C381.506 29.4093 380.855 29.1426 380.374 28.6679L378.959 27.27C378.302 26.6207 377.452 26.205 376.543 26.0767L376.5 26.0343H369.667C368.723 26.0343 367.958 25.2788 367.958 24.3468C367.958 23.4148 368.723 22.6593 369.667 22.6593H383.333C384.277 22.6593 385.042 23.4148 385.042 24.3468C385.042 25.2788 384.277 26.0343 383.333 26.0343H379.917L381.125 27.2276C381.445 27.544 381.88 27.7218 382.333 27.7218H383.333C385.22 27.7218 386.75 26.2107 386.75 24.3468C386.75 22.4829 385.22 20.9718 383.333 20.9718H369.667C367.78 20.9718 366.25 22.4829 366.25 24.3468C366.25 26.2107 367.78 27.7218 369.667 27.7218H375.939C376.619 27.7218 377.27 27.9885 377.751 28.4632L379.166 29.8611C379.967 30.6523 381.053 31.0968 382.186 31.0968H383.76V31.0838C387.335 30.8661 390.167 27.933 390.167 24.3468C390.167 20.6189 387.107 17.5968 383.333 17.5968H369.667C365.893 17.5968 362.833 20.6189 362.833 24.3468C362.833 28.0748 365.893 31.0968 369.667 31.0968H373.803C374.483 31.0968 375.135 31.3635 375.615 31.8382L377.031 33.2361C377.832 34.0273 378.918 34.4718 380.051 34.4718H383.333C388.994 34.4718 393.583 29.9387 393.583 24.3468C393.583 18.7549 388.994 14.2218 383.333 14.2218H369.667C364.006 14.2218 359.417 18.7549 359.417 24.3468C359.417 29.9387 364.006 34.4718 369.667 34.4718H371.974C372.653 34.4718 373.305 34.7385 373.786 35.2132L375.201 36.6111C376.002 37.4023 377.088 37.8468 378.221 37.8468H383.333C390.881 37.8468 397 31.8027 397 24.3468C397 16.891 390.881 10.8468 383.333 10.8468L369.667 10.8468C362.119 10.8468 356 16.891 356 24.3468C356 31.8027 362.119 37.8468 369.667 37.8468Z" fill="#212326"/>
</g>
<rect x="445" width="48" height="48" rx="8" fill="#F5F7FA"/>
<g clip-path="url(#clip5_22_791)">
<path d="M457.343 13.8468C455.312 13.8468 453.365 14.6535 451.929 16.0894L447.243 20.7757C445.807 22.2117 445 24.1592 445 26.1899C445 30.4187 448.428 33.8468 452.657 33.8468C454.688 33.8468 456.635 33.0401 458.071 31.6041L461.313 28.3626C461.313 28.3625 461.313 28.3627 461.313 28.3626L470.757 18.9179C471.443 18.2321 472.373 17.8468 473.343 17.8468C474.967 17.8468 476.343 18.9051 476.821 20.3695L479.801 17.3888C478.442 15.259 476.057 13.8468 473.343 13.8468C471.312 13.8468 469.365 14.6535 467.929 16.0894L455.243 28.7757C454.557 29.4615 453.627 29.8468 452.657 29.8468C450.637 29.8468 449 28.2096 449 26.1899C449 25.2201 449.385 24.2899 450.071 23.6041L454.757 18.9179C455.443 18.2321 456.373 17.8468 457.343 17.8468C458.967 17.8468 460.343 18.9051 460.821 20.3696L463.802 17.3888C462.442 15.2591 460.057 13.8468 457.343 13.8468Z" fill="#394149"/>
<path d="M471.243 28.7757C470.557 29.4615 469.627 29.8468 468.657 29.8468C467.033 29.8468 465.657 28.7888 465.18 27.3246L462.199 30.3053C463.559 32.4347 465.943 33.8468 468.657 33.8468C470.688 33.8468 472.635 33.0401 474.071 31.6041L486.757 18.9179C487.443 18.2321 488.373 17.8468 489.343 17.8468C491.363 17.8468 493 19.484 493 21.5037C493 22.4735 492.615 23.4037 491.929 24.0895L487.243 28.7757C486.557 29.4615 485.627 29.8468 484.657 29.8468C483.033 29.8468 481.657 28.7886 481.179 27.3243L478.199 30.305C479.559 32.4347 481.943 33.8468 484.657 33.8468C486.688 33.8468 488.635 33.0401 490.071 31.6041L494.757 26.9179C496.193 25.4819 497 23.5344 497 21.5037C497 17.2749 493.572 13.8468 489.343 13.8468C487.312 13.8468 485.365 14.6535 483.929 16.0894L471.243 28.7757Z" fill="#394149"/>
</g>
<path d="M534.435 16.4545H537.659L541.977 26.9943H542.148L546.466 16.4545H549.69V31H547.162V21.0071H547.027L543.007 30.9574H541.118L537.098 20.9858H536.963V31H534.435V16.4545ZM557.276 31.2131C556.182 31.2131 555.237 30.9858 554.442 30.5312C553.651 30.072 553.043 29.4233 552.616 28.5852C552.19 27.7424 551.977 26.7505 551.977 25.6094C551.977 24.4872 552.19 23.5024 552.616 22.6548C553.047 21.8026 553.649 21.1397 554.42 20.6662C555.192 20.188 556.099 19.9489 557.141 19.9489C557.813 19.9489 558.447 20.0578 559.044 20.2756C559.645 20.4886 560.176 20.8201 560.635 21.2699C561.099 21.7197 561.464 22.2926 561.729 22.9886C561.994 23.6799 562.126 24.5038 562.126 25.4602V26.2486H553.185V24.5156H559.662C559.657 24.0232 559.551 23.5852 559.342 23.2017C559.134 22.8134 558.843 22.508 558.469 22.2855C558.099 22.063 557.669 21.9517 557.176 21.9517C556.651 21.9517 556.189 22.0795 555.791 22.3352C555.393 22.5862 555.083 22.9176 554.861 23.3295C554.643 23.7367 554.532 24.1842 554.527 24.6719V26.1847C554.527 26.8191 554.643 27.3636 554.875 27.8182C555.107 28.268 555.431 28.6136 555.848 28.8551C556.265 29.0919 556.752 29.2102 557.311 29.2102C557.685 29.2102 558.024 29.1581 558.327 29.054C558.63 28.9451 558.893 28.7865 559.115 28.5781C559.338 28.3698 559.506 28.1117 559.619 27.804L562.02 28.0739C561.868 28.7083 561.58 29.2623 561.153 29.7358C560.732 30.2045 560.192 30.5691 559.534 30.8295C558.876 31.0852 558.123 31.2131 557.276 31.2131ZM569.131 31.2131C568.037 31.2131 567.093 30.9858 566.297 30.5312C565.507 30.072 564.898 29.4233 564.472 28.5852C564.046 27.7424 563.833 26.7505 563.833 25.6094C563.833 24.4872 564.046 23.5024 564.472 22.6548C564.903 21.8026 565.504 21.1397 566.276 20.6662C567.048 20.188 567.954 19.9489 568.996 19.9489C569.668 19.9489 570.303 20.0578 570.9 20.2756C571.501 20.4886 572.031 20.8201 572.49 21.2699C572.954 21.7197 573.319 22.2926 573.584 22.9886C573.849 23.6799 573.982 24.5038 573.982 25.4602V26.2486H565.04V24.5156H571.517C571.513 24.0232 571.406 23.5852 571.198 23.2017C570.989 22.8134 570.698 22.508 570.324 22.2855C569.955 22.063 569.524 21.9517 569.032 21.9517C568.506 21.9517 568.044 22.0795 567.647 22.3352C567.249 22.5862 566.939 22.9176 566.716 23.3295C566.498 23.7367 566.387 24.1842 566.382 24.6719V26.1847C566.382 26.8191 566.498 27.3636 566.73 27.8182C566.962 28.268 567.287 28.6136 567.703 28.8551C568.12 29.0919 568.608 29.2102 569.167 29.2102C569.541 29.2102 569.879 29.1581 570.182 29.054C570.485 28.9451 570.748 28.7865 570.971 28.5781C571.193 28.3698 571.361 28.1117 571.475 27.804L573.875 28.0739C573.724 28.7083 573.435 29.2623 573.009 29.7358C572.587 30.2045 572.048 30.5691 571.39 30.8295C570.731 31.0852 569.979 31.2131 569.131 31.2131ZM581.604 20.0909V22.0795H575.333V20.0909H581.604ZM576.881 17.4773H579.452V27.7188C579.452 28.0644 579.504 28.3295 579.609 28.5142C579.718 28.6941 579.86 28.8172 580.035 28.8835C580.21 28.9498 580.404 28.983 580.617 28.983C580.778 28.983 580.925 28.9711 581.058 28.9474C581.195 28.9238 581.299 28.9025 581.37 28.8835L581.803 30.8935C581.666 30.9408 581.469 30.9929 581.214 31.0497C580.963 31.1065 580.655 31.1397 580.29 31.1491C579.647 31.1681 579.067 31.071 578.55 30.858C578.034 30.6402 577.625 30.304 577.322 29.8494C577.023 29.3949 576.877 28.8267 576.881 28.1449V17.4773ZM591.855 31.2202C591.163 31.2202 590.541 31.0971 589.987 30.8509C589.438 30.5999 589.002 30.2306 588.68 29.7429C588.363 29.2552 588.204 28.6539 588.204 27.9389C588.204 27.3234 588.318 26.8144 588.545 26.4119C588.772 26.0095 589.083 25.6875 589.475 25.446C589.868 25.2045 590.311 25.0223 590.804 24.8991C591.301 24.7713 591.815 24.679 592.345 24.6222C592.984 24.5559 593.502 24.4967 593.9 24.4446C594.298 24.3878 594.587 24.3026 594.767 24.1889C594.951 24.0705 595.044 23.8883 595.044 23.642V23.5994C595.044 23.0644 594.885 22.6501 594.568 22.3565C594.251 22.063 593.794 21.9162 593.197 21.9162C592.567 21.9162 592.068 22.0535 591.699 22.3281C591.334 22.6027 591.088 22.9271 590.96 23.3011L588.559 22.9602C588.749 22.2973 589.061 21.7434 589.497 21.2983C589.932 20.8485 590.465 20.5123 591.095 20.2898C591.725 20.0625 592.421 19.9489 593.183 19.9489C593.708 19.9489 594.232 20.0104 594.752 20.1335C595.273 20.2566 595.749 20.4602 596.18 20.7443C596.611 21.0237 596.957 21.4048 597.217 21.8878C597.482 22.3707 597.615 22.9744 597.615 23.6989V31H595.143V29.5014H595.058C594.902 29.8045 594.681 30.0885 594.397 30.3537C594.118 30.6141 593.765 30.8248 593.339 30.9858C592.918 31.142 592.423 31.2202 591.855 31.2202ZM592.522 29.331C593.038 29.331 593.486 29.2292 593.865 29.0256C594.243 28.8172 594.535 28.5426 594.738 28.2017C594.947 27.8608 595.051 27.4891 595.051 27.0866V25.8011C594.97 25.8674 594.833 25.929 594.639 25.9858C594.449 26.0426 594.236 26.0923 594 26.1349C593.763 26.1776 593.529 26.2154 593.297 26.2486C593.065 26.2817 592.863 26.3101 592.693 26.3338C592.309 26.3859 591.966 26.4711 591.663 26.5895C591.36 26.7079 591.121 26.8736 590.946 27.0866C590.77 27.295 590.683 27.5649 590.683 27.8963C590.683 28.3698 590.856 28.7273 591.201 28.9688C591.547 29.2102 591.987 29.331 592.522 29.331ZM602.771 16.4545V31H600.2V16.4545H602.771ZM607.986 16.4545V31H605.415V16.4545H607.986ZM620.349 31.2131C619.26 31.2131 618.325 30.974 617.544 30.4957C616.767 30.0175 616.168 29.357 615.747 28.5142C615.33 27.6667 615.122 26.6913 615.122 25.5881C615.122 24.4801 615.335 23.5024 615.761 22.6548C616.187 21.8026 616.788 21.1397 617.565 20.6662C618.346 20.188 619.27 19.9489 620.335 19.9489C621.22 19.9489 622.004 20.1122 622.686 20.4389C623.372 20.7609 623.919 21.2178 624.326 21.8097C624.734 22.3968 624.966 23.0833 625.022 23.8693H622.565C622.466 23.3437 622.229 22.9058 621.855 22.5554C621.485 22.2003 620.991 22.0227 620.37 22.0227C619.845 22.0227 619.383 22.1648 618.985 22.4489C618.588 22.7282 618.278 23.1307 618.055 23.6562C617.837 24.1818 617.728 24.8116 617.728 25.5455C617.728 26.2888 617.837 26.928 618.055 27.4631C618.273 27.9934 618.578 28.4029 618.971 28.6918C619.369 28.9759 619.835 29.1179 620.37 29.1179C620.749 29.1179 621.088 29.0469 621.386 28.9048C621.689 28.758 621.942 28.5473 622.146 28.2727C622.35 27.9981 622.489 27.6643 622.565 27.2713H625.022C624.961 28.0431 624.734 28.7273 624.341 29.3239C623.948 29.9157 623.413 30.3797 622.735 30.7159C622.058 31.0473 621.263 31.2131 620.349 31.2131ZM634.087 26.4119V20.0909H636.658V31H634.165V29.0611H634.051C633.805 29.6719 633.4 30.1714 632.837 30.5597C632.278 30.9479 631.589 31.142 630.77 31.142C630.055 31.142 629.423 30.9834 628.874 30.6662C628.329 30.3442 627.903 29.8778 627.595 29.267C627.287 28.6515 627.134 27.9081 627.134 27.0369V20.0909H629.705V26.6392C629.705 27.3305 629.894 27.8797 630.273 28.2869C630.652 28.6941 631.149 28.8977 631.764 28.8977C632.143 28.8977 632.51 28.8054 632.865 28.6207C633.22 28.4361 633.511 28.1615 633.739 27.7969C633.971 27.4276 634.087 26.9659 634.087 26.4119ZM647.924 22.9744L645.58 23.2301C645.514 22.9934 645.398 22.7708 645.232 22.5625C645.071 22.3542 644.853 22.1861 644.578 22.0582C644.304 21.9304 643.968 21.8665 643.57 21.8665C643.035 21.8665 642.585 21.9825 642.221 22.2145C641.861 22.4465 641.683 22.7472 641.688 23.1165C641.683 23.4337 641.799 23.6918 642.036 23.8906C642.277 24.0895 642.675 24.2528 643.229 24.3807L645.09 24.7784C646.122 25.0009 646.889 25.3537 647.391 25.8366C647.898 26.3196 648.153 26.9517 648.158 27.733C648.153 28.4195 647.952 29.0256 647.554 29.5511C647.161 30.072 646.614 30.4792 645.914 30.7727C645.213 31.0663 644.408 31.2131 643.499 31.2131C642.164 31.2131 641.089 30.9337 640.275 30.375C639.46 29.8116 638.975 29.0279 638.819 28.0241L641.326 27.7827C641.439 28.2751 641.681 28.6468 642.05 28.8977C642.419 29.1487 642.9 29.2741 643.492 29.2741C644.103 29.2741 644.593 29.1487 644.962 28.8977C645.336 28.6468 645.523 28.3366 645.523 27.9673C645.523 27.6548 645.402 27.3968 645.161 27.1932C644.924 26.9896 644.555 26.8333 644.053 26.7244L642.192 26.3338C641.146 26.116 640.372 25.7491 639.87 25.233C639.368 24.7121 639.119 24.054 639.124 23.2585C639.119 22.5862 639.301 22.0038 639.671 21.5114C640.045 21.0142 640.563 20.6307 641.226 20.3608C641.894 20.0862 642.663 19.9489 643.534 19.9489C644.813 19.9489 645.819 20.2211 646.553 20.7656C647.292 21.3101 647.748 22.0464 647.924 22.9744ZM655.725 20.0909V22.0795H649.454V20.0909H655.725ZM651.002 17.4773H653.574V27.7188C653.574 28.0644 653.626 28.3295 653.73 28.5142C653.839 28.6941 653.981 28.8172 654.156 28.8835C654.331 28.9498 654.525 28.983 654.738 28.983C654.899 28.983 655.046 28.9711 655.179 28.9474C655.316 28.9238 655.42 28.9025 655.491 28.8835L655.924 30.8935C655.787 30.9408 655.591 30.9929 655.335 31.0497C655.084 31.1065 654.776 31.1397 654.412 31.1491C653.768 31.1681 653.188 31.071 652.672 30.858C652.155 30.6402 651.746 30.304 651.443 29.8494C651.145 29.3949 650.998 28.8267 651.002 28.1449V17.4773ZM662.517 31.2131C661.452 31.2131 660.528 30.9787 659.747 30.5099C658.966 30.0412 658.36 29.3854 657.929 28.5426C657.503 27.6998 657.29 26.715 657.29 25.5881C657.29 24.4612 657.503 23.474 657.929 22.6264C658.36 21.7789 658.966 21.1207 659.747 20.652C660.528 20.1832 661.452 19.9489 662.517 19.9489C663.582 19.9489 664.506 20.1832 665.287 20.652C666.068 21.1207 666.672 21.7789 667.098 22.6264C667.529 23.474 667.744 24.4612 667.744 25.5881C667.744 26.715 667.529 27.6998 667.098 28.5426C666.672 29.3854 666.068 30.0412 665.287 30.5099C664.506 30.9787 663.582 31.2131 662.517 31.2131ZM662.531 29.1534C663.109 29.1534 663.592 28.9948 663.98 28.6776C664.368 28.3556 664.657 27.9247 664.847 27.3849C665.041 26.8452 665.138 26.2438 665.138 25.581C665.138 24.9134 665.041 24.3097 664.847 23.7699C664.657 23.2254 664.368 22.7921 663.98 22.4702C663.592 22.1482 663.109 21.9872 662.531 21.9872C661.939 21.9872 661.447 22.1482 661.054 22.4702C660.666 22.7921 660.375 23.2254 660.18 23.7699C659.991 24.3097 659.896 24.9134 659.896 25.581C659.896 26.2438 659.991 26.8452 660.18 27.3849C660.375 27.9247 660.666 28.3556 661.054 28.6776C661.447 28.9948 661.939 29.1534 662.531 29.1534ZM669.926 31V20.0909H672.384V21.9446H672.512C672.739 21.3196 673.115 20.8319 673.641 20.4815C674.167 20.1264 674.794 19.9489 675.523 19.9489C676.262 19.9489 676.884 20.1288 677.391 20.4886C677.902 20.8437 678.262 21.3291 678.471 21.9446H678.584C678.826 21.3385 679.233 20.8556 679.806 20.4957C680.383 20.1312 681.068 19.9489 681.858 19.9489C682.862 19.9489 683.681 20.2661 684.316 20.9006C684.95 21.535 685.267 22.4607 685.267 23.6776V31H682.689V24.0753C682.689 23.3982 682.509 22.9034 682.15 22.5909C681.79 22.2737 681.349 22.1151 680.828 22.1151C680.208 22.1151 679.723 22.3092 679.373 22.6974C679.027 23.081 678.854 23.5805 678.854 24.196V31H676.333V23.9688C676.333 23.4053 676.162 22.9555 675.821 22.6193C675.485 22.2831 675.045 22.1151 674.5 22.1151C674.131 22.1151 673.795 22.2098 673.492 22.3991C673.189 22.5838 672.947 22.8466 672.767 23.1875C672.587 23.5237 672.498 23.9167 672.498 24.3665V31H669.926ZM692.705 31.2131C691.612 31.2131 690.667 30.9858 689.871 30.5312C689.081 30.072 688.472 29.4233 688.046 28.5852C687.62 27.7424 687.407 26.7505 687.407 25.6094C687.407 24.4872 687.62 23.5024 688.046 22.6548C688.477 21.8026 689.078 21.1397 689.85 20.6662C690.622 20.188 691.529 19.9489 692.57 19.9489C693.243 19.9489 693.877 20.0578 694.474 20.2756C695.075 20.4886 695.605 20.8201 696.065 21.2699C696.529 21.7197 696.893 22.2926 697.158 22.9886C697.424 23.6799 697.556 24.5038 697.556 25.4602V26.2486H688.614V24.5156H695.092C695.087 24.0232 694.98 23.5852 694.772 23.2017C694.564 22.8134 694.272 22.508 693.898 22.2855C693.529 22.063 693.098 21.9517 692.606 21.9517C692.08 21.9517 691.619 22.0795 691.221 22.3352C690.823 22.5862 690.513 22.9176 690.29 23.3295C690.073 23.7367 689.961 24.1842 689.957 24.6719V26.1847C689.957 26.8191 690.073 27.3636 690.305 27.8182C690.537 28.268 690.861 28.6136 691.278 28.8551C691.694 29.0919 692.182 29.2102 692.741 29.2102C693.115 29.2102 693.453 29.1581 693.756 29.054C694.059 28.9451 694.322 28.7865 694.545 28.5781C694.767 28.3698 694.935 28.1117 695.049 27.804L697.45 28.0739C697.298 28.7083 697.009 29.2623 696.583 29.7358C696.162 30.2045 695.622 30.5691 694.964 30.8295C694.306 31.0852 693.553 31.2131 692.705 31.2131ZM699.731 31V20.0909H702.224V21.9091H702.338C702.537 21.2794 702.877 20.794 703.36 20.4531C703.848 20.1075 704.404 19.9347 705.029 19.9347C705.172 19.9347 705.33 19.9418 705.505 19.956C705.685 19.9654 705.834 19.982 705.953 20.0057V22.3707C705.844 22.3329 705.671 22.2997 705.434 22.2713C705.202 22.2382 704.977 22.2216 704.76 22.2216C704.291 22.2216 703.869 22.3234 703.495 22.527C703.126 22.7259 702.835 23.0028 702.622 23.358C702.409 23.7131 702.302 24.1226 702.302 24.5866V31H699.731ZM716.283 22.9744L713.939 23.2301C713.873 22.9934 713.757 22.7708 713.591 22.5625C713.43 22.3542 713.212 22.1861 712.938 22.0582C712.663 21.9304 712.327 21.8665 711.929 21.8665C711.394 21.8665 710.944 21.9825 710.58 22.2145C710.22 22.4465 710.042 22.7472 710.047 23.1165C710.042 23.4337 710.158 23.6918 710.395 23.8906C710.637 24.0895 711.034 24.2528 711.588 24.3807L713.449 24.7784C714.481 25.0009 715.248 25.3537 715.75 25.8366C716.257 26.3196 716.513 26.9517 716.517 27.733C716.513 28.4195 716.311 29.0256 715.914 29.5511C715.521 30.072 714.974 30.4792 714.273 30.7727C713.572 31.0663 712.767 31.2131 711.858 31.2131C710.523 31.2131 709.448 30.9337 708.634 30.375C707.819 29.8116 707.334 29.0279 707.178 28.0241L709.685 27.7827C709.799 28.2751 710.04 28.6468 710.409 28.8977C710.779 29.1487 711.259 29.2741 711.851 29.2741C712.462 29.2741 712.952 29.1487 713.321 28.8977C713.695 28.6468 713.882 28.3366 713.882 27.9673C713.882 27.6548 713.762 27.3968 713.52 27.1932C713.283 26.9896 712.914 26.8333 712.412 26.7244L710.551 26.3338C709.505 26.116 708.731 25.7491 708.229 25.233C707.727 24.7121 707.479 24.054 707.483 23.2585C707.479 22.5862 707.661 22.0038 708.03 21.5114C708.404 21.0142 708.923 20.6307 709.586 20.3608C710.253 20.0862 711.023 19.9489 711.894 19.9489C713.172 19.9489 714.178 20.2211 714.912 20.7656C715.651 21.3101 716.108 22.0464 716.283 22.9744Z" fill="#4CAF4F"/>
<path d="M745 28L748.293 24.7071C748.683 24.3166 748.683 23.6834 748.293 23.2929L745 20M748 24L734 24" stroke="#4CAF4F" stroke-width="1.5" stroke-linecap="round"/>
<defs>
<clipPath id="clip0_22_791">
<rect width="40" height="40" fill="white" transform="translate(0.353333 0.194519)"/>
</clipPath>
<clipPath id="clip1_22_791">
<rect width="40" height="28" fill="white" transform="translate(89.1123 9.8468)"/>
</clipPath>
<clipPath id="clip2_22_791">
<rect width="55" height="30" fill="white" transform="translate(178 8.8468)"/>
</clipPath>
<clipPath id="clip3_22_791">
<rect width="47" height="29" fill="white" transform="translate(267 9.8468)"/>
</clipPath>
<clipPath id="clip4_22_791">
<rect width="41" height="27" fill="white" transform="translate(356 10.8468)"/>
</clipPath>
<clipPath id="clip5_22_791">
<rect width="52" height="20" fill="white" transform="translate(445 13.8468)"/>
</clipPath>
</defs>
</svg>
